<svg xmlns="http://www.w3.org/2000/svg" width="1200" height="760" viewBox="0 0 1200 760" role="img" aria-labelledby="title desc">
  <title id="title">Migration infrastructure vers AWS</title>
  <desc id="desc">Illustration d'une architecture cloud avec VPC, EC2, RDS et S3.</desc>
  <defs>
    <linearGradient id="bg" x1="0" x2="1" y1="0" y2="1">
      <stop offset="0" stop-color="#07111f"/>
      <stop offset="1" stop-color="#123c68"/>
    </linearGradient>
    <linearGradient id="accent" x1="0" x2="1">
      <stop offset="0" stop-color="#38bdf8"/>
      <stop offset="1" stop-color="#22c55e"/>
    </linearGradient>
  </defs>
  <rect width="1200" height="760" fill="url(#bg)"/>
  <g opacity=".16" stroke="#93c5fd" stroke-width="2">
    <path d="M0 120h1200M0 260h1200M0 400h1200M0 540h1200M160 0v760M360 0v760M560 0v760M760 0v760M960 0v760"/>
  </g>
  <g transform="translate(115 145)">
    <rect width="290" height="390" rx="22" fill="#0f172a" stroke="#334155" stroke-width="3"/>
    <text x="36" y="58" fill="#e2e8f0" font-family="Segoe UI, Arial" font-size="34" font-weight="800">On-Premise</text>
    <rect x="42" y="106" width="206" height="54" rx="10" fill="#172554" stroke="#3b82f6"/>
    <rect x="42" y="184" width="206" height="54" rx="10" fill="#172554" stroke="#3b82f6"/>
    <rect x="42" y="262" width="206" height="54" rx="10" fill="#172554" stroke="#3b82f6"/>
    <text x="68" y="142" fill="#bfdbfe" font-family="Segoe UI, Arial" font-size="20" font-weight="700">Serveurs</text>
    <text x="68" y="220" fill="#bfdbfe" font-family="Segoe UI, Arial" font-size="20" font-weight="700">Donnees</text>
    <text x="68" y="298" fill="#bfdbfe" font-family="Segoe UI, Arial" font-size="20" font-weight="700">Applications</text>
  </g>
  <path d="M465 350h230" stroke="url(#accent)" stroke-width="10" stroke-linecap="round"/>
  <path d="M660 320l48 30-48 30" fill="none" stroke="url(#accent)" stroke-width="10" stroke-linecap="round" stroke-linejoin="round"/>
  <g transform="translate(720 110)">
    <path d="M180 70c72 0 132 48 148 112 70 10 122 65 122 132 0 74-64 134-143 134H102C44 448 0 405 0 352c0-48 36-88 84-96-2-10-4-20-4-31C80 139 124 70 180 70z" fill="#e0f2fe" opacity=".95"/>
    <text x="112" y="172" fill="#0f172a" font-family="Segoe UI, Arial" font-size="48" font-weight="900">AWS</text>
    <g font-family="Segoe UI, Arial" font-size="24" font-weight="800">
      <rect x="70" y="225" width="120" height="70" rx="12" fill="#ff9900"/>
      <text x="104" y="269" fill="#111827">EC2</text>
      <rect x="222" y="225" width="120" height="70" rx="12" fill="#16a34a"/>
      <text x="255" y="269" fill="#ffffff">RDS</text>
      <rect x="145" y="322" width="120" height="70" rx="12" fill="#2563eb"/>
      <text x="180" y="366" fill="#ffffff">S3</text>
    </g>
  </g>
  <text x="90" y="675" fill="#ffffff" font-family="Segoe UI, Arial" font-size="44" font-weight="900">Migration cloud multi-tiers</text>
  <text x="92" y="715" fill="#bae6fd" font-family="Segoe UI, Arial" font-size="24" font-weight="700">VPC • IAM • Sauvegarde • Haute disponibilite</text>
</svg>
