<svg xmlns="http://www.w3.org/2000/svg" width="1200" height="760" viewBox="0 0 1200 760" role="img" aria-labelledby="title desc">
  <title id="title">Dockerisation du portfolio full-stack</title>
  <desc id="desc">Illustration d'une application portfolio conteneurisee avec Docker Compose, React, Express et MongoDB.</desc>
  <defs>
    <linearGradient id="bg" x1="0" x2="1" y1="0" y2="1">
      <stop offset="0" stop-color="#071827"/>
      <stop offset=".48" stop-color="#0f3a5c"/>
      <stop offset="1" stop-color="#0d9488"/>
    </linearGradient>
    <linearGradient id="panel" x1="0" x2="1">
      <stop offset="0" stop-color="#0f172a"/>
      <stop offset="1" stop-color="#1e293b"/>
    </linearGradient>
    <linearGradient id="accent" x1="0" x2="1">
      <stop offset="0" stop-color="#38bdf8"/>
      <stop offset="1" stop-color="#22c55e"/>
    </linearGradient>
  </defs>
  <rect width="1200" height="760" fill="url(#bg)"/>
  <g opacity=".14" stroke="#bfdbfe" stroke-width="2">
    <path d="M0 118h1200M0 260h1200M0 402h1200M0 544h1200M150 0v760M350 0v760M550 0v760M750 0v760M950 0v760"/>
  </g>
  <g transform="translate(95 110)">
    <rect width="1010" height="470" rx="24" fill="url(#panel)" stroke="#67e8f9" stroke-opacity=".4" stroke-width="3"/>
    <text x="48" y="72" fill="#e0f2fe" font-family="Segoe UI, Arial" font-size="42" font-weight="900">Docker Compose</text>
    <text x="50" y="114" fill="#99f6e4" font-family="Segoe UI, Arial" font-size="24" font-weight="700">Frontend + API + MongoDB</text>
    <g transform="translate(58 178)">
      <rect width="250" height="170" rx="18" fill="#082f49" stroke="#38bdf8" stroke-width="3"/>
      <circle cx="52" cy="58" r="24" fill="#38bdf8"/>
      <text x="92" y="66" fill="#e0f2fe" font-family="Segoe UI, Arial" font-size="30" font-weight="900">React</text>
      <text x="34" y="124" fill="#bae6fd" font-family="Segoe UI, Arial" font-size="24" font-weight="800">Port 5173</text>
    </g>
    <g transform="translate(380 178)">
      <rect width="250" height="170" rx="18" fill="#052e16" stroke="#22c55e" stroke-width="3"/>
      <circle cx="52" cy="58" r="24" fill="#22c55e"/>
      <text x="92" y="66" fill="#dcfce7" font-family="Segoe UI, Arial" font-size="30" font-weight="900">Express</text>
      <text x="34" y="124" fill="#bbf7d0" font-family="Segoe UI, Arial" font-size="24" font-weight="800">Port 5000</text>
    </g>
    <g transform="translate(702 178)">
      <rect width="250" height="170" rx="18" fill="#172554" stroke="#60a5fa" stroke-width="3"/>
      <circle cx="52" cy="58" r="24" fill="#60a5fa"/>
      <text x="92" y="66" fill="#dbeafe" font-family="Segoe UI, Arial" font-size="30" font-weight="900">MongoDB</text>
      <text x="34" y="124" fill="#bfdbfe" font-family="Segoe UI, Arial" font-size="24" font-weight="800">Port 27017</text>
    </g>
    <path d="M315 264h54" stroke="url(#accent)" stroke-width="8" stroke-linecap="round"/>
    <path d="M637 264h54" stroke="url(#accent)" stroke-width="8" stroke-linecap="round"/>
    <g transform="translate(432 370)">
      <rect width="170" height="48" rx="12" fill="#0284c7"/>
      <text x="28" y="32" fill="#ffffff" font-family="Segoe UI, Arial" font-size="20" font-weight="900">Healthchecks</text>
    </g>
    <g transform="translate(630 370)">
      <rect width="145" height="48" rx="12" fill="#16a34a"/>
      <text x="30" y="32" fill="#ffffff" font-family="Segoe UI, Arial" font-size="20" font-weight="900">Volumes</text>
    </g>
  </g>
  <g transform="translate(94 616)">
    <text x="0" y="0" fill="#ffffff" font-family="Segoe UI, Arial" font-size="46" font-weight="900">Portfolio conteneurise</text>
    <text x="0" y="44" fill="#ccfbf1" font-family="Segoe UI, Arial" font-size="25" font-weight="700">Dockerfile, Docker Compose, MongoDB persistant et preparation Docker Hub</text>
  </g>
</svg>
